<?xml version="1.0" encoding="utf-8"?>
<!-- Generator: Adobe Illustrator 23.0.3, SVG Export Plug-In . SVG Version: 6.00 Build 0)  -->
<svg version="1.1" xmlns="http://www.w3.org/2000/svg" xmlns:xlink="http://www.w3.org/1999/xlink" x="0px" y="0px"
	 viewBox="0 0 180.3 81.8" style="enable-background:new 0 0 180.3 81.8;" xml:space="preserve">
<style type="text/css">
	.st0{fill:#1C1C1C;}
	.st1{stroke:#000000;stroke-width:5;stroke-miterlimit:10;}
	.st2{font-family:'AgencyFB-Reg';}
	.st3{font-size:15px;}
</style>
<g id="Layer_1">
	<g>
		
			<image style="overflow:visible;opacity:0.75;" width="169" height="79" xlink:href="5E67EB53.png"  transform="matrix(1 0 0 1 -1.4074 -0.5926)">
		</image>
		<g>
			<g>
				<g>
					<path class="st0" d="M52.6,34.3c0,6.1-1.4,11.5-4.2,16.3C45.7,55.4,41.8,59,37,61.3c-4.1,1.9-8.3,2.9-12.7,2.9h-2.5V46.3h2.8
						c3.8,0,6.8-1.1,9-3.3c2.2-2.2,3.3-5.1,3.3-8.8c0-8-4.8-12-14.5-12h-3v42H3.4V4.3H22c2.8,0,5.3,0.2,7.5,0.5
						c2.2,0.4,4.6,1.2,7.4,2.5c4.9,2.3,8.7,5.9,11.5,10.7C51.2,22.8,52.6,28.3,52.6,34.3z"/>
					<path class="st0" d="M113.8,41.9c0,3.4-0.1,6.2-0.4,8.4c-0.3,2.2-0.9,4.2-1.9,6c-2.8,5.2-7.1,7.8-12.8,7.8s-10.1-2.8-13-8.5
						c-3,5.7-7.4,8.5-13.1,8.5c-5,0-8.9-2-11.7-6c-1.4-2-2.4-4.2-2.8-6.7c-0.5-2.5-0.7-5.7-0.7-9.6V4.3H72v38c0,1.9,0.2,3.3,0.6,4.1
						c0.4,0.8,1.2,1.2,2.4,1.2c2.1,0,3.2-1.8,3.2-5.4v-38H93v38c0,1.9,0.2,3.3,0.6,4.1c0.4,0.8,1.2,1.2,2.4,1.2
						c2.1,0,3.2-1.8,3.2-5.4v-38h14.6L113.8,41.9L113.8,41.9z"/>
				</g>
			</g>
		</g>
	</g>
</g>
<g id="Layer_2">
	<line class="st1" x1="132.9" y1="48.7" x2="132.9" y2="16.6"/>
	<line class="st1" x1="118.1" y1="32.6" x2="147.6" y2="32.6"/>
	<text transform="matrix(1.6643 0 0 1 3.4197 78.2219)" class="st2 st3">lee dong wook</text>
	<line class="st1" x1="165.6" y1="48.7" x2="165.6" y2="16.6"/>
	<line class="st1" x1="150.9" y1="32.6" x2="180.3" y2="32.6"/>
</g>
</svg>
